<svg width="356" height="36" viewBox="0 0 356 36" fill="none" xmlns="http://www.w3.org/2000/svg">
<path d="M20.2871 0H25.3906V35.5469H20.3125V30.4688H17.748V27.9297H15.209V25.3906H10.1816V27.9297H7.64258V30.4688H5.07812V35.5469H0V0H5.10352V22.8516H7.64258V20.3125H10.1816V15.2344H15.209V20.3125H17.748V22.8516H20.2871V0ZM32.9824 12.6953V15.2344H48.2168V12.6953H45.6777V10.1562H35.5215V12.6953H32.9824ZM32.9824 20.3125V27.9297H35.5215V30.4688H45.6777V27.9297H53.2949V30.4688H50.7559V33.0078H48.2168V35.5469H32.9824V33.0078H30.4434V30.4688H27.9043V10.1562H30.4434V7.61719H32.9824V5.07812H48.2168V7.61719H50.7559V10.1562H53.2949V17.7734H50.7559V20.3125H32.9824ZM76.1465 15.2344H73.6074V12.6953H68.5293V15.2344H65.9902V17.7734H63.4512V25.3906H65.9902V27.9297H68.5293V30.4688H73.6074V27.9297H76.1465V15.2344ZM81.2246 30.4688H78.6855V33.0078H76.1465V35.5469H65.9902V33.0078H63.4512V30.4688H60.9121V35.5469H55.834V0H60.9121V12.6953H63.4512V10.1562H65.9902V7.61719H76.1465V10.1562H78.6855V12.6953H81.2246V30.4688ZM104.076 15.2344V20.3125H83.7637V15.2344H104.076ZM111.693 12.6953V2.53906H114.232V0H124.389V5.07812H116.771V12.6953H124.389V17.7734H116.771V35.5469H111.693V17.7734H106.615V12.6953H111.693ZM126.928 5.07812H132.006V10.1562H134.545V7.61719H137.084V5.07812H147.24V7.61719H149.779V10.1562H152.318V15.2344H147.24V12.6953H144.701V10.1562H139.623V12.6953H137.084V15.2344H134.545V17.7734H132.006V35.5469H126.928V5.07812ZM159.936 12.6953V15.2344H175.17V12.6953H172.631V10.1562H162.475V12.6953H159.936ZM159.936 20.3125V27.9297H162.475V30.4688H172.631V27.9297H180.248V30.4688H177.709V33.0078H175.17V35.5469H159.936V33.0078H157.396V30.4688H154.857V10.1562H157.396V7.61719H159.936V5.07812H175.17V7.61719H177.709V10.1562H180.248V17.7734H177.709V20.3125H159.936ZM187.865 12.6953V15.2344H203.1V12.6953H200.561V10.1562H190.404V12.6953H187.865ZM187.865 20.3125V27.9297H190.404V30.4688H200.561V27.9297H208.178V30.4688H205.639V33.0078H203.1V35.5469H187.865V33.0078H185.326V30.4688H182.787V10.1562H185.326V7.61719H187.865V5.07812H203.1V7.61719H205.639V10.1562H208.178V17.7734H205.639V20.3125H187.865ZM215.795 0V35.5469H210.717V0H215.795ZM225.951 30.4688H236.107V27.9297H238.646V22.8516H236.107V20.3125H225.951V22.8516H223.412V27.9297H225.951V30.4688ZM223.412 7.61719V5.07812H238.646V7.61719H241.186V10.1562H243.725V35.5469H238.646V33.0078H236.107V35.5469H223.412V33.0078H220.873V30.4688H218.334V20.3125H220.873V17.7734H223.412V15.2344H236.107V17.7734H238.646V12.6953H236.107V10.1562H225.951V12.6953H220.873V7.61719H223.412ZM266.576 12.6953H264.037V10.1562H253.881V12.6953H251.342V35.5469H246.264V5.07812H251.342V7.61719H253.881V5.07812H266.576V7.61719H269.115V10.1562H271.654V35.5469H266.576V12.6953ZM279.271 27.9297H281.811V30.4688H291.967V27.9297H294.506V25.3906H299.584V30.4688H297.045V33.0078H294.506V35.5469H279.271V33.0078H276.732V30.4688H274.193V10.1562H276.732V7.61719H279.271V5.07812H294.506V7.61719H297.045V10.1562H299.584V15.2344H294.506V12.6953H291.967V10.1562H281.811V12.6953H279.271V27.9297ZM307.201 12.6953V15.2344H322.436V12.6953H319.896V10.1562H309.74V12.6953H307.201ZM307.201 20.3125V27.9297H309.74V30.4688H319.896V27.9297H327.514V30.4688H324.975V33.0078H322.436V35.5469H307.201V33.0078H304.662V30.4688H302.123V10.1562H304.662V7.61719H307.201V5.07812H322.436V7.61719H324.975V10.1562H327.514V17.7734H324.975V20.3125H307.201ZM330.053 5.07812H335.131V10.1562H337.67V7.61719H340.209V5.07812H350.365V7.61719H352.904V10.1562H355.443V15.2344H350.365V12.6953H347.826V10.1562H342.748V12.6953H340.209V15.2344H337.67V17.7734H335.131V35.5469H330.053V5.07812Z" fill="black"/>
</svg>
