<svg width="303" height="47" viewBox="0 0 303 47" fill="none" xmlns="http://www.w3.org/2000/svg">
<path d="M34.32 4.368L23.3653 35.8453H17.056L15.5306 15.808L8.31996 35.8453H2.14929L-4.42713e-05 4.368H6.65596L7.55729 25.6533L14.352 6.93334H19.4826L20.9386 25.6533L27.8026 4.368H34.32ZM49.8012 21.4933C50.1248 19.136 50.0554 17.5182 49.5932 16.64C49.131 15.7618 48.4608 15.3227 47.5825 15.3227C46.7505 15.3227 45.8954 15.7849 45.0172 16.7093C44.1852 17.5876 43.6074 19.1822 43.2839 21.4933H49.8012ZM46.7505 31.5467C48.7843 31.5467 50.8181 30.9689 52.8519 29.8133L53.5452 34.112C52.4359 34.944 50.587 35.6142 47.9985 36.1227C47.0279 36.3538 45.9185 36.4693 44.6705 36.4693C43.4225 36.4693 42.1976 36.2382 40.9959 35.776C39.8403 35.3138 38.8928 34.5973 38.1532 33.6267C36.443 31.408 35.8883 28.288 36.4892 24.2667C37.0901 19.9218 38.523 16.5244 40.7879 14.0747C42.9141 11.856 45.4101 10.7467 48.2759 10.7467C52.6208 10.7467 55.1861 12.8267 55.9719 16.9867C56.3879 19.1591 56.2261 21.6551 55.4865 24.4747C55.3479 25.0756 55.2323 25.4222 55.1399 25.5147H42.7292C42.4056 27.6409 42.6368 29.1893 43.4225 30.16C44.2545 31.0844 45.3639 31.5467 46.7505 31.5467ZM67.8463 17.8187C67.5689 18.0498 67.3609 18.2578 67.2223 18.4427L65.6969 29.328C66.1592 29.6978 66.5983 30.0444 67.0143 30.368C67.4303 30.6453 67.9156 30.784 68.4703 30.784C70.0881 30.784 71.3129 30.2524 72.1449 29.1893C73.0232 28.08 73.6703 26.2773 74.0863 23.7813C74.4561 20.9618 74.3867 18.9973 73.8783 17.888C73.4161 16.7787 72.6072 16.224 71.4516 16.224C70.2961 16.224 69.0943 16.7556 67.8463 17.8187ZM63.1316 1.456L69.7183 0.554671L67.8463 14.0747C68.2161 13.7973 68.6321 13.4738 69.0943 13.104C69.6027 12.688 70.1574 12.3182 70.7583 11.9947C72.0987 11.1627 73.3698 10.7467 74.5716 10.7467C75.7734 10.7467 76.8134 11.0009 77.6916 11.5093C78.5698 11.9716 79.2863 12.7111 79.8409 13.728C81.0889 16.0391 81.4125 19.2053 80.8116 23.2267C80.1645 27.4791 78.8472 30.7147 76.8596 32.9333C75.0107 35.0596 72.8383 36.1227 70.3423 36.1227C68.2623 36.1227 66.6445 35.4293 65.4889 34.0427C65.2116 33.6729 64.9574 33.3262 64.7263 33.0027L63.7556 35.8453H58.3476L63.1316 1.456ZM94.6802 25.0293H82.8242L83.5868 19.8987H95.3042L94.6802 25.0293ZM114.625 5.54667C114.071 5.26934 113.262 5.13067 112.199 5.13067C111.182 5.13067 110.488 5.45423 110.119 6.10134C109.749 6.70223 109.448 7.78845 109.217 9.36L108.94 11.3013H113.377L112.615 16.016H108.316L103.948 46.7307H97.5L101.868 16.016H99.2333L99.8573 11.3013H102.423L102.839 8.45867C103.255 5.45423 104.064 3.30489 105.265 2.01067C106.513 0.670226 108.062 4.29153e-06 109.911 4.29153e-06C112.314 4.29153e-06 114.163 0.32356 115.457 0.970672C115.272 2.35734 114.995 3.88267 114.625 5.54667ZM123.905 35.8453H117.457L120.924 11.3013H126.609L126.401 14.56H126.47C127.164 13.4507 128.042 12.5262 129.105 11.7867C130.168 11.0471 131.093 10.6773 131.878 10.6773C132.664 10.6773 133.173 10.7467 133.404 10.8853C133.681 10.9778 133.935 11.0702 134.166 11.1627L132.849 16.7787C132.572 16.7324 132.202 16.64 131.74 16.5013C131.324 16.3627 130.838 16.2933 130.284 16.2933C129.729 16.2933 129.151 16.4782 128.55 16.848C127.949 17.2178 127.187 17.8187 126.262 18.6507L123.905 35.8453ZM149.84 21.4933C150.164 19.136 150.094 17.5182 149.632 16.64C149.17 15.7618 148.5 15.3227 147.622 15.3227C146.79 15.3227 145.934 15.7849 145.056 16.7093C144.224 17.5876 143.646 19.1822 143.323 21.4933H149.84ZM146.79 31.5467C148.823 31.5467 150.857 30.9689 152.891 29.8133L153.584 34.112C152.475 34.944 150.626 35.6142 148.038 36.1227C147.067 36.3538 145.958 36.4693 144.71 36.4693C143.462 36.4693 142.237 36.2382 141.035 35.776C139.879 35.3138 138.932 34.5973 138.192 33.6267C136.482 31.408 135.927 28.288 136.528 24.2667C137.129 19.9218 138.562 16.5244 140.827 14.0747C142.953 11.856 145.449 10.7467 148.315 10.7467C152.66 10.7467 155.225 12.8267 156.011 16.9867C156.427 19.1591 156.265 21.6551 155.526 24.4747C155.387 25.0756 155.271 25.4222 155.179 25.5147H142.768C142.445 27.6409 142.676 29.1893 143.462 30.16C144.294 31.0844 145.403 31.5467 146.79 31.5467ZM172.184 21.4933C172.508 19.136 172.438 17.5182 171.976 16.64C171.514 15.7618 170.844 15.3227 169.965 15.3227C169.133 15.3227 168.278 15.7849 167.4 16.7093C166.568 17.5876 165.99 19.1822 165.667 21.4933H172.184ZM169.133 31.5467C171.167 31.5467 173.201 30.9689 175.235 29.8133L175.928 34.112C174.819 34.944 172.97 35.6142 170.381 36.1227C169.411 36.3538 168.301 36.4693 167.053 36.4693C165.805 36.4693 164.58 36.2382 163.379 35.776C162.223 35.3138 161.276 34.5973 160.536 33.6267C158.826 31.408 158.271 28.288 158.872 24.2667C159.473 19.9218 160.906 16.5244 163.171 14.0747C165.297 11.856 167.793 10.7467 170.659 10.7467C175.004 10.7467 177.569 12.8267 178.355 16.9867C178.771 19.1591 178.609 21.6551 177.869 24.4747C177.731 25.0756 177.615 25.4222 177.523 25.5147H165.112C164.788 27.6409 165.02 29.1893 165.805 30.16C166.637 31.0844 167.747 31.5467 169.133 31.5467ZM187.178 35.8453H180.73L185.514 1.456L192.101 0.554671L187.178 35.8453ZM210.065 15.9467C209.233 15.8542 208.147 15.808 206.806 15.808C205.466 15.808 204.333 16.3627 203.409 17.472C202.531 18.5813 201.883 20.592 201.467 23.504C201.098 26.3698 201.121 28.3342 201.537 29.3973C201.999 30.4604 202.877 30.992 204.171 30.992C204.957 30.992 205.72 30.7609 206.459 30.2987C207.245 29.7902 207.869 29.2587 208.331 28.704L210.065 15.9467ZM208.331 32.9333C205.697 35.2907 203.131 36.4693 200.635 36.4693C197.03 36.4693 194.973 34.2276 194.465 29.744C194.28 28.1724 194.349 26.2311 194.673 23.92C194.996 21.5627 195.551 19.552 196.337 17.888C197.123 16.224 198.047 14.8604 199.11 13.7973C201.098 11.856 203.571 10.8853 206.529 10.8853C210.042 10.8853 213.578 11.232 217.137 11.9253L213.739 35.8453H208.331V32.9333ZM222.486 11.3013H228.171L227.894 14.4213H228.033C228.264 14.2827 228.587 14.0053 229.003 13.5893C229.466 13.1733 230.043 12.7573 230.737 12.3413C232.447 11.2782 234.134 10.7467 235.798 10.7467C238.109 10.7467 239.635 11.44 240.374 12.8267C241.114 14.2133 241.275 16.3627 240.859 19.2747L238.502 35.8453H232.193L234.203 20.8693C234.435 19.1129 234.411 17.9342 234.134 17.3333C233.857 16.6862 233.233 16.3627 232.262 16.3627C231.43 16.3627 230.667 16.6169 229.974 17.1253C228.68 18.1422 227.963 18.7893 227.825 19.0667L225.467 35.8453H219.019L222.486 11.3013ZM260.252 16.5013C258.727 15.9929 257.433 15.7387 256.37 15.7387C254.752 15.7387 253.481 16.3858 252.556 17.68C251.632 18.928 250.962 20.9618 250.546 23.7813C250.176 26.5547 250.291 28.5191 250.892 29.6747C251.539 30.784 252.441 31.3387 253.596 31.3387C254.798 31.3387 255.838 31.1769 256.716 30.8533C257.594 30.4836 258.195 30.2524 258.519 30.16L259.42 34.1813C256.878 35.7067 254.451 36.4693 252.14 36.4693C245.484 36.4693 242.734 32.2862 243.89 23.92C245.045 15.1378 249.136 10.7467 256.162 10.7467C258.149 10.7467 259.998 11.0702 261.708 11.7173L260.252 16.5013ZM277.25 21.4933C277.574 19.136 277.505 17.5182 277.042 16.64C276.58 15.7618 275.91 15.3227 275.032 15.3227C274.2 15.3227 273.345 15.7849 272.466 16.7093C271.634 17.5876 271.057 19.1822 270.733 21.4933H277.25ZM274.2 31.5467C276.234 31.5467 278.267 30.9689 280.301 29.8133L280.994 34.112C279.885 34.944 278.036 35.6142 275.448 36.1227C274.477 36.3538 273.368 36.4693 272.12 36.4693C270.872 36.4693 269.647 36.2382 268.445 35.776C267.29 35.3138 266.342 34.5973 265.602 33.6267C263.892 31.408 263.338 28.288 263.938 24.2667C264.539 19.9218 265.972 16.5244 268.237 14.0747C270.363 11.856 272.859 10.7467 275.725 10.7467C280.07 10.7467 282.635 12.8267 283.421 16.9867C283.837 19.1591 283.675 21.6551 282.936 24.4747C282.797 25.0756 282.682 25.4222 282.589 25.5147H270.178C269.855 27.6409 270.086 29.1893 270.872 30.16C271.704 31.0844 272.813 31.5467 274.2 31.5467ZM292.245 35.8453H285.797L289.263 11.3013H294.949L294.741 14.56H294.81C295.503 13.4507 296.382 12.5262 297.445 11.7867C298.508 11.0471 299.432 10.6773 300.218 10.6773C301.004 10.6773 301.512 10.7467 301.743 10.8853C302.021 10.9778 302.275 11.0702 302.506 11.1627L301.189 16.7787C300.911 16.7324 300.542 16.64 300.079 16.5013C299.663 16.3627 299.178 16.2933 298.623 16.2933C298.069 16.2933 297.491 16.4782 296.89 16.848C296.289 17.2178 295.527 17.8187 294.602 18.6507L292.245 35.8453Z" fill="black"/>
</svg>
