<svg width="381" height="87" viewBox="0 0 381 87" fill="none" xmlns="http://www.w3.org/2000/svg">
<path d="M1.68527 44.9127V10.8811H6.79545V35.5622L13.5909 27.0271L20.3864 35.5622V10.8811H25.4965V44.9127H21.2562L14.4607 34.6924H12.7211L5.92564 44.9127H1.68527ZM28.8671 25.1787L32.9444 21.1015H46.8615L50.9931 25.1787V34.6924H33.8142L35.0102 40.618L51.1562 40.1287L49.7971 44.0429L33.6511 45.0758L28.8671 41.1616V25.1787ZM46.046 31.3218L45.0131 25.3418L36.3693 24.3089L33.9773 26.7009V31.3218H46.046ZM56.0489 44.9127V10.8811H61.1591V21.1015H74.0433L78.1749 25.1787V40.7811L74.0433 44.9127H56.0489ZM72.1949 40.618V25.3418L61.1591 24.3089V41.6509L72.1949 40.618ZM83.2307 29.5822V26.2116H105.357V29.5822H83.2307ZM118.948 15.0127L122.971 10.8811H134.224V14.1429L124.873 15.1758L123.84 21.1015H130.799V24.472H124.003V44.9127H118.948V24.472H112.098V21.1015H118.948V15.0127ZM137.594 44.9127V21.1015H142.705V25.1787L146.782 21.1015H159.72V24.472H149.011L142.705 30.1258V44.9127H137.594ZM164.776 25.1787L168.853 21.1015H182.771L186.902 25.1787V34.6924H169.723L170.919 40.618L187.065 40.1287L185.706 44.0429L169.56 45.0758L164.776 41.1616V25.1787ZM181.955 31.3218L180.922 25.3418L172.278 24.3089L169.886 26.7009V31.3218H181.955ZM191.958 25.1787L196.035 21.1015H209.952L214.084 25.1787V34.6924H196.905L198.101 40.618L214.247 40.1287L212.888 44.0429L196.742 45.0758L191.958 41.1616V25.1787ZM209.137 31.3218L208.104 25.3418L199.46 24.3089L197.068 26.7009V31.3218H209.137ZM224.25 14.306V10.8811H232.731V41.4878H236.156V44.9127H224.25V41.4878H227.675V14.306H224.25ZM248.007 24.3089V21.1015H264.316L268.448 25.1787V44.9127H250.399L246.322 40.7811V33.6595L250.399 29.5822H263.664L262.141 25.3418L248.007 24.3089ZM263.337 41.4878V33.0071H252.954L251.106 37.8998L253.28 41.4878H263.337ZM273.503 44.9127V21.1015H291.498L295.629 25.1787V44.9127H290.682L289.649 25.3418L278.614 24.3089V44.9127H273.503ZM300.685 25.1787L304.763 21.1015H319.06L323.301 26.2116L321.072 28.3862L313.08 24.1458L306.665 25.3418V40.618L313.08 41.814L321.072 37.5736L323.301 39.8025L319.06 44.9127H304.763L300.685 40.7811V25.1787ZM327.867 25.1787L331.944 21.1015H345.861L349.993 25.1787V34.6924H332.814L334.01 40.618L350.156 40.1287L348.797 44.0429L332.651 45.0758L327.867 41.1616V25.1787ZM345.046 31.3218L344.013 25.3418L335.369 24.3089L332.977 26.7009V31.3218H345.046ZM355.049 44.9127V21.1015H360.159V25.1787L364.236 21.1015H377.175V24.472H366.465L360.159 30.1258V44.9127H355.049Z" fill="black"/>
<path d="M5.488 79.696V71.008H6.928L7.384 79.624L13 80.08V71.008H14.512V81.52H7.312L5.488 79.696ZM17.488 81.52V71.008H19V75.52H25V71.008H26.512V81.52H25V77.008H19V81.52H17.488ZM33.256 70.624V68.752H34.744V70.624L38.128 72.136V80.392L34.744 81.88V83.752H33.256V81.88L29.872 80.392V72.136L33.256 70.624ZM33.256 80.152V72.496H31.672L30.928 74.608L31.384 79.48L33.256 80.152ZM36.616 79.48V73.024L34.744 72.352V80.152L36.616 79.48ZM41.488 72.808L43.312 71.008H48.688L50.512 72.808V79.696L48.688 81.52H43.312L41.488 79.696V72.808ZM48.616 79.624V72.88L43.744 72.424L42.928 74.608L43.384 79.624H48.616ZM53.488 74.752V73.264H62.512V74.752H53.488ZM65.488 81.52V71.008H74.512V81.52H73V72.496H67V81.52H65.488ZM79 72.808L80.8 71.008H86.512V81.52H85V72.424L80.872 72.88L80.128 81.136L77.128 81.664L79 79.696V72.808ZM90.256 72.424V71.008H96.688L98.512 72.808V81.52H91.312L89.488 79.696V76.552L91.312 74.752H97.144L96.472 72.88L90.256 72.424ZM97 80.008V76.264H91.672L90.856 78.424L91.816 80.008H97ZM101.488 72.496V71.008H110.512V72.496H106.744V81.52H105.256V72.496H101.488ZM117.256 70.624V68.752H118.744V70.624L122.128 72.136V80.392L118.744 81.88V83.752H117.256V81.88L113.872 80.392V72.136L117.256 70.624ZM117.256 80.152V72.496H115.672L114.928 74.608L115.384 79.48L117.256 80.152ZM120.616 79.48V73.024L118.744 72.352V80.152L120.616 79.48ZM125.488 72.808L127.312 71.008H132.688L134.512 72.808V79.696L132.688 81.52H127.312L125.488 79.696V72.808ZM132.616 79.624V72.88L127.744 72.424L126.928 74.608L127.384 79.624H132.616ZM137.488 85.264V71.008H144.688L146.512 72.808V79.696L144.688 81.52H139V85.264H137.488ZM144.616 79.624V72.88L139 72.424V80.08L144.616 79.624ZM148.744 81.52V71.008H149.8L153.712 74.752L157.216 71.008H158.512V81.52H157V73.696L153.712 77.008L150.256 73.792V81.52H148.744ZM162.256 72.424V71.008H168.688L170.512 72.808V81.52H163.312L161.488 79.696V76.552L163.312 74.752H169.144L168.472 72.88L162.256 72.424ZM169 80.008V76.264H163.672L162.856 78.424L163.816 80.008H169ZM185.488 81.52V71.008H194.512V81.52H193V72.496H187V81.52H185.488ZM197.488 85.264V71.008H204.688L206.512 72.808V79.696L204.688 81.52H199V85.264H197.488ZM204.616 79.624V72.88L199 72.424V80.08L204.616 79.624ZM209.488 72.808L211.312 71.008H216.688L218.512 72.808V79.696L216.688 81.52H211.312L209.488 79.696V72.808ZM216.616 79.624V72.88L211.744 72.424L210.928 74.608L211.384 79.624H216.616ZM235.744 68.008V66.496H240.256V68.008H238.744V80.008H240.256V81.52H235.744V80.008H237.256V68.008H235.744ZM245.488 68.008V66.496H254.512V68.008H250.744V81.52H249.256V68.008H245.488ZM259.888 83.008L261.544 78.496H262.744V81.208L260.944 83.008H259.888ZM280.744 81.52V66.496H282.256V78.88L285.016 74.608H286.216L289 78.88V66.496H290.512V81.52H289.384L286.384 77.008H284.872L281.872 81.52H280.744ZM293.488 72.808L295.312 71.008H300.688L302.512 72.808V77.008H294.928L295.456 79.624L302.512 79.552L301.984 81.136L295.672 81.592L293.488 79.864V72.808ZM301.072 75.52L300.616 72.88L296.056 72.424L295 73.48V75.52H301.072ZM305.488 81.52V66.496H307V71.008H312.688L314.512 72.808V79.696L312.688 81.52H305.488ZM312.616 79.624V72.88L307 72.424V80.08L312.616 79.624ZM319.888 83.008L321.544 78.496H322.744V81.208L320.944 83.008H319.888ZM341.488 68.32L343.312 66.496H348.688L350.512 68.32V81.52H349V75.52H343V81.52H341.488V68.32ZM349.072 74.008L348.616 68.392L344.056 67.936L343 68.992V74.008H349.072ZM355.744 72.496V71.008H358.744V80.008H360.256V81.52H355.744V80.008H357.256V72.496H355.744ZM357.256 69.52V66.496H358.744V69.52H357.256Z" fill="black"/>
</svg>
