<svg width="381" height="85" viewBox="0 0 381 85" fill="none" xmlns="http://www.w3.org/2000/svg">
<path d="M1.68527 44.9127V10.8811H6.79545V35.5622L13.5909 27.0271L20.3864 35.5622V10.8811H25.4965V44.9127H21.2562L14.4607 34.6924H12.7211L5.92564 44.9127H1.68527ZM28.8671 25.1787L32.9444 21.1015H46.8615L50.9931 25.1787V34.6924H33.8142L35.0102 40.618L51.1562 40.1287L49.7971 44.0429L33.6511 45.0758L28.8671 41.1616V25.1787ZM46.046 31.3218L45.0131 25.3418L36.3693 24.3089L33.9773 26.7009V31.3218H46.046ZM56.0489 44.9127V10.8811H61.1591V21.1015H74.0433L78.1749 25.1787V40.7811L74.0433 44.9127H56.0489ZM72.1949 40.618V25.3418L61.1591 24.3089V41.6509L72.1949 40.618ZM83.2307 29.5822V26.2116H105.357V29.5822H83.2307ZM118.948 15.0127L122.971 10.8811H134.224V14.1429L124.873 15.1758L123.84 21.1015H130.799V24.472H124.003V44.9127H118.948V24.472H112.098V21.1015H118.948V15.0127ZM137.594 44.9127V21.1015H142.705V25.1787L146.782 21.1015H159.72V24.472H149.011L142.705 30.1258V44.9127H137.594ZM164.776 25.1787L168.853 21.1015H182.771L186.902 25.1787V34.6924H169.723L170.919 40.618L187.065 40.1287L185.706 44.0429L169.56 45.0758L164.776 41.1616V25.1787ZM181.955 31.3218L180.922 25.3418L172.278 24.3089L169.886 26.7009V31.3218H181.955ZM191.958 25.1787L196.035 21.1015H209.952L214.084 25.1787V34.6924H196.905L198.101 40.618L214.247 40.1287L212.888 44.0429L196.742 45.0758L191.958 41.1616V25.1787ZM209.137 31.3218L208.104 25.3418L199.46 24.3089L197.068 26.7009V31.3218H209.137ZM224.25 14.306V10.8811H232.731V41.4878H236.156V44.9127H224.25V41.4878H227.675V14.306H224.25ZM248.007 24.3089V21.1015H264.316L268.448 25.1787V44.9127H250.399L246.322 40.7811V33.6595L250.399 29.5822H263.664L262.141 25.3418L248.007 24.3089ZM263.337 41.4878V33.0071H252.954L251.106 37.8998L253.28 41.4878H263.337ZM273.503 44.9127V21.1015H291.498L295.629 25.1787V44.9127H290.682L289.649 25.3418L278.614 24.3089V44.9127H273.503ZM300.685 25.1787L304.763 21.1015H319.06L323.301 26.2116L321.072 28.3862L313.08 24.1458L306.665 25.3418V40.618L313.08 41.814L321.072 37.5736L323.301 39.8025L319.06 44.9127H304.763L300.685 40.7811V25.1787ZM327.867 25.1787L331.944 21.1015H345.861L349.993 25.1787V34.6924H332.814L334.01 40.618L350.156 40.1287L348.797 44.0429L332.651 45.0758L327.867 41.1616V25.1787ZM345.046 31.3218L344.013 25.3418L335.369 24.3089L332.977 26.7009V31.3218H345.046ZM355.049 44.9127V21.1015H360.159V25.1787L364.236 21.1015H377.175V24.472H366.465L360.159 30.1258V44.9127H355.049Z" fill="black"/>
<path d="M5.364 78.888V70.924H6.684L7.102 78.822L12.25 79.24V70.924H13.636V80.56H7.036L5.364 78.888ZM16.364 80.56V70.924H17.75V75.06H23.25V70.924H24.636V80.56H23.25V76.424H17.75V80.56H16.364ZM30.818 70.572V68.856H32.182V70.572L35.284 71.958V79.526L32.182 80.89V82.606H30.818V80.89L27.716 79.526V71.958L30.818 70.572ZM30.818 79.306V72.288H29.366L28.684 74.224L29.102 78.69L30.818 79.306ZM33.898 78.69V72.772L32.182 72.156V79.306L33.898 78.69ZM38.364 72.574L40.036 70.924H44.964L46.636 72.574V78.888L44.964 80.56H40.036L38.364 78.888V72.574ZM44.898 78.822V72.64L40.432 72.222L39.684 74.224L40.102 78.822H44.898ZM49.364 74.356V72.992H57.636V74.356H49.364ZM60.364 80.56V70.924H68.636V80.56H67.25V72.288H61.75V80.56H60.364ZM72.75 72.574L74.4 70.924H79.636V80.56H78.25V72.222L74.466 72.64L73.784 80.208L71.034 80.692L72.75 78.888V72.574ZM83.068 72.222V70.924H88.964L90.636 72.574V80.56H84.036L82.364 78.888V76.006L84.036 74.356H89.382L88.766 72.64L83.068 72.222ZM89.25 79.174V75.742H84.366L83.618 77.722L84.498 79.174H89.25ZM93.364 72.288V70.924H101.636V72.288H98.182V80.56H96.818V72.288H93.364ZM107.818 70.572V68.856H109.182V70.572L112.284 71.958V79.526L109.182 80.89V82.606H107.818V80.89L104.716 79.526V71.958L107.818 70.572ZM107.818 79.306V72.288H106.366L105.684 74.224L106.102 78.69L107.818 79.306ZM110.898 78.69V72.772L109.182 72.156V79.306L110.898 78.69ZM115.364 72.574L117.036 70.924H121.964L123.636 72.574V78.888L121.964 80.56H117.036L115.364 78.888V72.574ZM121.898 78.822V72.64L117.432 72.222L116.684 74.224L117.102 78.822H121.898ZM126.364 83.992V70.924H132.964L134.636 72.574V78.888L132.964 80.56H127.75V83.992H126.364ZM132.898 78.822V72.64L127.75 72.222V79.24L132.898 78.822ZM136.682 80.56V70.924H137.65L141.236 74.356L144.448 70.924H145.636V80.56H144.25V73.388L141.236 76.424L138.068 73.476V80.56H136.682ZM149.068 72.222V70.924H154.964L156.636 72.574V80.56H150.036L148.364 78.888V76.006L150.036 74.356H155.382L154.766 72.64L149.068 72.222ZM155.25 79.174V75.742H150.366L149.618 77.722L150.498 79.174H155.25ZM170.364 80.56V70.924H178.636V80.56H177.25V72.288H171.75V80.56H170.364ZM181.364 83.992V70.924H187.964L189.636 72.574V78.888L187.964 80.56H182.75V83.992H181.364ZM187.898 78.822V72.64L182.75 72.222V79.24L187.898 78.822ZM192.364 72.574L194.036 70.924H198.964L200.636 72.574V78.888L198.964 80.56H194.036L192.364 78.888V72.574ZM198.898 78.822V72.64L194.432 72.222L193.684 74.224L194.102 78.822H198.898ZM216.432 68.174V66.788H220.568V68.174H219.182V79.174H220.568V80.56H216.432V79.174H217.818V68.174H216.432ZM225.364 68.174V66.788H233.636V68.174H230.182V80.56H228.818V68.174H225.364ZM238.564 81.924L240.082 77.788H241.182V80.274L239.532 81.924H238.564ZM257.682 80.56V66.788H259.068V78.14L261.598 74.224H262.698L265.25 78.14V66.788H266.636V80.56H265.602L262.852 76.424H261.466L258.716 80.56H257.682ZM269.364 72.574L271.036 70.924H275.964L277.636 72.574V76.424H270.684L271.168 78.822L277.636 78.756L277.152 80.208L271.366 80.626L269.364 79.042V72.574ZM276.316 75.06L275.898 72.64L271.718 72.222L270.75 73.19V75.06H276.316ZM280.364 80.56V66.788H281.75V70.924H286.964L288.636 72.574V78.888L286.964 80.56H280.364ZM286.898 78.822V72.64L281.75 72.222V79.24L286.898 78.822ZM293.564 81.924L295.082 77.788H296.182V80.274L294.532 81.924H293.564ZM313.364 68.46L315.102 66.722L320.448 67.14L321.9 69.472L320.932 70.506L319.15 68.042L315.102 68.526V78.822L319.15 79.306L320.932 76.842L321.9 77.876L320.448 80.208L315.366 80.626L313.364 79.042V68.46ZM324.364 72.574L326.036 70.924H330.964L332.636 72.574V78.888L330.964 80.56H326.036L324.364 78.888V72.574ZM330.898 78.822V72.64L326.432 72.222L325.684 74.224L326.102 78.822H330.898ZM342.25 70.924V66.788H343.636V80.56H337.036L335.364 78.888V72.574L337.036 70.924H342.25ZM342.25 79.24V72.288H337.366L336.684 74.224L337.102 78.822L342.25 79.24ZM348.432 72.288V70.924H351.182V79.174H352.568V80.56H348.432V79.174H349.818V72.288H348.432ZM349.818 69.56V66.788H351.182V69.56H349.818ZM357.364 80.56V70.924H363.964L365.636 72.574V80.56H364.316L363.898 72.64L358.75 72.222V80.56H357.364ZM368.364 72.574L370.036 70.924H376.636V82.342L374.964 83.992H369.068V82.672L374.766 82.276L375.382 80.56H370.036L368.364 78.888V72.574ZM375.25 79.24V72.288H370.366L369.684 74.224L370.102 78.822L375.25 79.24Z" fill="black"/>
</svg>
