<svg width="382" height="73" viewBox="0 0 382 73" fill="none" xmlns="http://www.w3.org/2000/svg">
<path d="M1.68527 44.9127V10.8811H6.79545V35.5622L13.5909 27.0271L20.3864 35.5622V10.8811H25.4965V44.9127H21.2562L14.4607 34.6924H12.7211L5.92564 44.9127H1.68527ZM28.8671 25.1787L32.9444 21.1015H46.8615L50.9931 25.1787V34.6924H33.8142L35.0102 40.618L51.1562 40.1287L49.7971 44.0429L33.6511 45.0758L28.8671 41.1616V25.1787ZM46.046 31.3218L45.0131 25.3418L36.3693 24.3089L33.9773 26.7009V31.3218H46.046ZM56.0489 44.9127V10.8811H61.1591V21.1015H74.0433L78.1749 25.1787V40.7811L74.0433 44.9127H56.0489ZM72.1949 40.618V25.3418L61.1591 24.3089V41.6509L72.1949 40.618ZM83.2307 29.5822V26.2116H105.357V29.5822H83.2307ZM118.948 15.0127L122.971 10.8811H134.224V14.1429L124.873 15.1758L123.84 21.1015H130.799V24.472H124.003V44.9127H118.948V24.472H112.098V21.1015H118.948V15.0127ZM137.594 44.9127V21.1015H142.705V25.1787L146.782 21.1015H159.72V24.472H149.011L142.705 30.1258V44.9127H137.594ZM164.776 25.1787L168.853 21.1015H182.771L186.902 25.1787V34.6924H169.723L170.919 40.618L187.065 40.1287L185.706 44.0429L169.56 45.0758L164.776 41.1616V25.1787ZM181.955 31.3218L180.922 25.3418L172.278 24.3089L169.886 26.7009V31.3218H181.955ZM191.958 25.1787L196.035 21.1015H209.952L214.084 25.1787V34.6924H196.905L198.101 40.618L214.247 40.1287L212.888 44.0429L196.742 45.0758L191.958 41.1616V25.1787ZM209.137 31.3218L208.104 25.3418L199.46 24.3089L197.068 26.7009V31.3218H209.137ZM224.25 14.306V10.8811H232.731V41.4878H236.156V44.9127H224.25V41.4878H227.675V14.306H224.25ZM248.007 24.3089V21.1015H264.316L268.448 25.1787V44.9127H250.399L246.322 40.7811V33.6595L250.399 29.5822H263.664L262.141 25.3418L248.007 24.3089ZM263.337 41.4878V33.0071H252.954L251.106 37.8998L253.28 41.4878H263.337ZM273.503 44.9127V21.1015H291.498L295.629 25.1787V44.9127H290.682L289.649 25.3418L278.614 24.3089V44.9127H273.503ZM300.685 25.1787L304.763 21.1015H319.06L323.301 26.2116L321.072 28.3862L313.08 24.1458L306.665 25.3418V40.618L313.08 41.814L321.072 37.5736L323.301 39.8025L319.06 44.9127H304.763L300.685 40.7811V25.1787ZM327.867 25.1787L331.944 21.1015H345.861L349.993 25.1787V34.6924H332.814L334.01 40.618L350.156 40.1287L348.797 44.0429L332.651 45.0758L327.867 41.1616V25.1787ZM345.046 31.3218L344.013 25.3418L335.369 24.3089L332.977 26.7009V31.3218H345.046ZM355.049 44.9127V21.1015H360.159V25.1787L364.236 21.1015H377.175V24.472H366.465L360.159 30.1258V44.9127H355.049Z" fill="black"/>
<path d="M1.364 66.888V58.924H2.684L3.102 66.822L8.25 67.24V58.924H9.636V68.56H3.036L1.364 66.888ZM12.364 68.56V58.924H13.75V63.06H19.25V58.924H20.636V68.56H19.25V64.424H13.75V68.56H12.364ZM26.818 58.572V56.856H28.182V58.572L31.284 59.958V67.526L28.182 68.89V70.606H26.818V68.89L23.716 67.526V59.958L26.818 58.572ZM26.818 67.306V60.288H25.366L24.684 62.224L25.102 66.69L26.818 67.306ZM29.898 66.69V60.772L28.182 60.156V67.306L29.898 66.69ZM34.364 60.574L36.036 58.924H40.964L42.636 60.574V66.888L40.964 68.56H36.036L34.364 66.888V60.574ZM40.898 66.822V60.64L36.432 60.222L35.684 62.224L36.102 66.822H40.898ZM45.364 62.356V60.992H53.636V62.356H45.364ZM56.364 68.56V58.924H64.636V68.56H63.25V60.288H57.75V68.56H56.364ZM68.75 60.574L70.4 58.924H75.636V68.56H74.25V60.222L70.466 60.64L69.784 68.208L67.034 68.692L68.75 66.888V60.574ZM79.068 60.222V58.924H84.964L86.636 60.574V68.56H80.036L78.364 66.888V64.006L80.036 62.356H85.382L84.766 60.64L79.068 60.222ZM85.25 67.174V63.742H80.366L79.618 65.722L80.498 67.174H85.25ZM89.364 60.288V58.924H97.636V60.288H94.182V68.56H92.818V60.288H89.364ZM103.818 58.572V56.856H105.182V58.572L108.284 59.958V67.526L105.182 68.89V70.606H103.818V68.89L100.716 67.526V59.958L103.818 58.572ZM103.818 67.306V60.288H102.366L101.684 62.224L102.102 66.69L103.818 67.306ZM106.898 66.69V60.772L105.182 60.156V67.306L106.898 66.69ZM111.364 60.574L113.036 58.924H117.964L119.636 60.574V66.888L117.964 68.56H113.036L111.364 66.888V60.574ZM117.898 66.822V60.64L113.432 60.222L112.684 62.224L113.102 66.822H117.898ZM122.364 71.992V58.924H128.964L130.636 60.574V66.888L128.964 68.56H123.75V71.992H122.364ZM128.898 66.822V60.64L123.75 60.222V67.24L128.898 66.822ZM132.682 68.56V58.924H133.65L137.236 62.356L140.448 58.924H141.636V68.56H140.25V61.388L137.236 64.424L134.068 61.476V68.56H132.682ZM145.068 60.222V58.924H150.964L152.636 60.574V68.56H146.036L144.364 66.888V64.006L146.036 62.356H151.382L150.766 60.64L145.068 60.222ZM151.25 67.174V63.742H146.366L145.618 65.722L146.498 67.174H151.25ZM166.364 68.56V58.924H174.636V68.56H173.25V60.288H167.75V68.56H166.364ZM177.364 71.992V58.924H183.964L185.636 60.574V66.888L183.964 68.56H178.75V71.992H177.364ZM183.898 66.822V60.64L178.75 60.222V67.24L183.898 66.822ZM188.364 60.574L190.036 58.924H194.964L196.636 60.574V66.888L194.964 68.56H190.036L188.364 66.888V60.574ZM194.898 66.822V60.64L190.432 60.222L189.684 62.224L190.102 66.822H194.898ZM212.432 56.174V54.788H216.568V56.174H215.182V67.174H216.568V68.56H212.432V67.174H213.818V56.174H212.432ZM221.364 56.174V54.788H229.636V56.174H226.182V68.56H224.818V56.174H221.364ZM234.564 69.924L236.082 65.788H237.182V68.274L235.532 69.924H234.564ZM253.682 68.56V54.788H255.068V66.14L257.598 62.224H258.698L261.25 66.14V54.788H262.636V68.56H261.602L258.852 64.424H257.466L254.716 68.56H253.682ZM265.364 60.574L267.036 58.924H271.964L273.636 60.574V64.424H266.684L267.168 66.822L273.636 66.756L273.152 68.208L267.366 68.626L265.364 67.042V60.574ZM272.316 63.06L271.898 60.64L267.718 60.222L266.75 61.19V63.06H272.316ZM276.364 68.56V54.788H277.75V58.924H282.964L284.636 60.574V66.888L282.964 68.56H276.364ZM282.898 66.822V60.64L277.75 60.222V67.24L282.898 66.822ZM289.564 69.924L291.082 65.788H292.182V68.274L290.532 69.924H289.564ZM309.364 56.46L311.102 54.722L316.448 55.14L317.9 57.472L316.932 58.506L315.15 56.042L311.102 56.526V66.822L315.15 67.306L316.932 64.842L317.9 65.876L316.448 68.208L311.366 68.626L309.364 67.042V56.46ZM320.364 60.574L322.036 58.924H326.964L328.636 60.574V66.888L326.964 68.56H322.036L320.364 66.888V60.574ZM326.898 66.822V60.64L322.432 60.222L321.684 62.224L322.102 66.822H326.898ZM338.25 58.924V54.788H339.636V68.56H333.036L331.364 66.888V60.574L333.036 58.924H338.25ZM338.25 67.24V60.288H333.366L332.684 62.224L333.102 66.822L338.25 67.24ZM344.432 60.288V58.924H347.182V67.174H348.568V68.56H344.432V67.174H345.818V60.288H344.432ZM345.818 57.56V54.788H347.182V57.56H345.818ZM353.364 68.56V58.924H359.964L361.636 60.574V68.56H360.316L359.898 60.64L354.75 60.222V68.56H353.364ZM364.364 60.574L366.036 58.924H372.636V70.342L370.964 71.992H365.068V70.672L370.766 70.276L371.382 68.56H366.036L364.364 66.888V60.574ZM371.25 67.24V60.288H366.366L365.684 62.224L366.102 66.822L371.25 67.24Z" fill="black"/>
</svg>
