<svg width="382" height="76" viewBox="0 0 382 76" fill="none" xmlns="http://www.w3.org/2000/svg">
<path d="M1.68527 44.9127V10.8811H6.79545V35.5622L13.5909 27.0271L20.3864 35.5622V10.8811H25.4965V44.9127H21.2562L14.4607 34.6924H12.7211L5.92564 44.9127H1.68527ZM28.8671 25.1787L32.9444 21.1015H46.8615L50.9931 25.1787V34.6924H33.8142L35.0102 40.618L51.1562 40.1287L49.7971 44.0429L33.6511 45.0758L28.8671 41.1616V25.1787ZM46.046 31.3218L45.0131 25.3418L36.3693 24.3089L33.9773 26.7009V31.3218H46.046ZM56.0489 44.9127V10.8811H61.1591V21.1015H74.0433L78.1749 25.1787V40.7811L74.0433 44.9127H56.0489ZM72.1949 40.618V25.3418L61.1591 24.3089V41.6509L72.1949 40.618ZM83.2307 29.5822V26.2116H105.357V29.5822H83.2307ZM118.948 15.0127L122.971 10.8811H134.224V14.1429L124.873 15.1758L123.84 21.1015H130.799V24.472H124.003V44.9127H118.948V24.472H112.098V21.1015H118.948V15.0127ZM137.594 44.9127V21.1015H142.705V25.1787L146.782 21.1015H159.72V24.472H149.011L142.705 30.1258V44.9127H137.594ZM164.776 25.1787L168.853 21.1015H182.771L186.902 25.1787V34.6924H169.723L170.919 40.618L187.065 40.1287L185.706 44.0429L169.56 45.0758L164.776 41.1616V25.1787ZM181.955 31.3218L180.922 25.3418L172.278 24.3089L169.886 26.7009V31.3218H181.955ZM191.958 25.1787L196.035 21.1015H209.952L214.084 25.1787V34.6924H196.905L198.101 40.618L214.247 40.1287L212.888 44.0429L196.742 45.0758L191.958 41.1616V25.1787ZM209.137 31.3218L208.104 25.3418L199.46 24.3089L197.068 26.7009V31.3218H209.137ZM224.25 14.306V10.8811H232.731V41.4878H236.156V44.9127H224.25V41.4878H227.675V14.306H224.25ZM248.007 24.3089V21.1015H264.316L268.448 25.1787V44.9127H250.399L246.322 40.7811V33.6595L250.399 29.5822H263.664L262.141 25.3418L248.007 24.3089ZM263.337 41.4878V33.0071H252.954L251.106 37.8998L253.28 41.4878H263.337ZM273.503 44.9127V21.1015H291.498L295.629 25.1787V44.9127H290.682L289.649 25.3418L278.614 24.3089V44.9127H273.503ZM300.685 25.1787L304.763 21.1015H319.06L323.301 26.2116L321.072 28.3862L313.08 24.1458L306.665 25.3418V40.618L313.08 41.814L321.072 37.5736L323.301 39.8025L319.06 44.9127H304.763L300.685 40.7811V25.1787ZM327.867 25.1787L331.944 21.1015H345.861L349.993 25.1787V34.6924H332.814L334.01 40.618L350.156 40.1287L348.797 44.0429L332.651 45.0758L327.867 41.1616V25.1787ZM345.046 31.3218L344.013 25.3418L335.369 24.3089L332.977 26.7009V31.3218H345.046ZM355.049 44.9127V21.1015H360.159V25.1787L364.236 21.1015H377.175V24.472H366.465L360.159 30.1258V44.9127H355.049Z" fill="black"/>
<path d="M1.364 69.888V61.924H2.684L3.102 69.822L8.25 70.24V61.924H9.636V71.56H3.036L1.364 69.888ZM12.364 71.56V61.924H13.75V66.06H19.25V61.924H20.636V71.56H19.25V67.424H13.75V71.56H12.364ZM26.818 61.572V59.856H28.182V61.572L31.284 62.958V70.526L28.182 71.89V73.606H26.818V71.89L23.716 70.526V62.958L26.818 61.572ZM26.818 70.306V63.288H25.366L24.684 65.224L25.102 69.69L26.818 70.306ZM29.898 69.69V63.772L28.182 63.156V70.306L29.898 69.69ZM34.364 63.574L36.036 61.924H40.964L42.636 63.574V69.888L40.964 71.56H36.036L34.364 69.888V63.574ZM40.898 69.822V63.64L36.432 63.222L35.684 65.224L36.102 69.822H40.898ZM45.364 65.356V63.992H53.636V65.356H45.364ZM56.364 71.56V61.924H64.636V71.56H63.25V63.288H57.75V71.56H56.364ZM68.75 63.574L70.4 61.924H75.636V71.56H74.25V63.222L70.466 63.64L69.784 71.208L67.034 71.692L68.75 69.888V63.574ZM79.068 63.222V61.924H84.964L86.636 63.574V71.56H80.036L78.364 69.888V67.006L80.036 65.356H85.382L84.766 63.64L79.068 63.222ZM85.25 70.174V66.742H80.366L79.618 68.722L80.498 70.174H85.25ZM89.364 63.288V61.924H97.636V63.288H94.182V71.56H92.818V63.288H89.364ZM103.818 61.572V59.856H105.182V61.572L108.284 62.958V70.526L105.182 71.89V73.606H103.818V71.89L100.716 70.526V62.958L103.818 61.572ZM103.818 70.306V63.288H102.366L101.684 65.224L102.102 69.69L103.818 70.306ZM106.898 69.69V63.772L105.182 63.156V70.306L106.898 69.69ZM111.364 63.574L113.036 61.924H117.964L119.636 63.574V69.888L117.964 71.56H113.036L111.364 69.888V63.574ZM117.898 69.822V63.64L113.432 63.222L112.684 65.224L113.102 69.822H117.898ZM122.364 74.992V61.924H128.964L130.636 63.574V69.888L128.964 71.56H123.75V74.992H122.364ZM128.898 69.822V63.64L123.75 63.222V70.24L128.898 69.822ZM132.682 71.56V61.924H133.65L137.236 65.356L140.448 61.924H141.636V71.56H140.25V64.388L137.236 67.424L134.068 64.476V71.56H132.682ZM145.068 63.222V61.924H150.964L152.636 63.574V71.56H146.036L144.364 69.888V67.006L146.036 65.356H151.382L150.766 63.64L145.068 63.222ZM151.25 70.174V66.742H146.366L145.618 68.722L146.498 70.174H151.25ZM166.364 71.56V61.924H174.636V71.56H173.25V63.288H167.75V71.56H166.364ZM177.364 74.992V61.924H183.964L185.636 63.574V69.888L183.964 71.56H178.75V74.992H177.364ZM183.898 69.822V63.64L178.75 63.222V70.24L183.898 69.822ZM188.364 63.574L190.036 61.924H194.964L196.636 63.574V69.888L194.964 71.56H190.036L188.364 69.888V63.574ZM194.898 69.822V63.64L190.432 63.222L189.684 65.224L190.102 69.822H194.898ZM212.432 59.174V57.788H216.568V59.174H215.182V70.174H216.568V71.56H212.432V70.174H213.818V59.174H212.432ZM221.364 59.174V57.788H229.636V59.174H226.182V71.56H224.818V59.174H221.364ZM234.564 72.924L236.082 68.788H237.182V71.274L235.532 72.924H234.564ZM253.682 71.56V57.788H255.068V69.14L257.598 65.224H258.698L261.25 69.14V57.788H262.636V71.56H261.602L258.852 67.424H257.466L254.716 71.56H253.682ZM265.364 63.574L267.036 61.924H271.964L273.636 63.574V67.424H266.684L267.168 69.822L273.636 69.756L273.152 71.208L267.366 71.626L265.364 70.042V63.574ZM272.316 66.06L271.898 63.64L267.718 63.222L266.75 64.19V66.06H272.316ZM276.364 71.56V57.788H277.75V61.924H282.964L284.636 63.574V69.888L282.964 71.56H276.364ZM282.898 69.822V63.64L277.75 63.222V70.24L282.898 69.822ZM289.564 72.924L291.082 68.788H292.182V71.274L290.532 72.924H289.564ZM309.364 59.46L311.102 57.722L316.448 58.14L317.9 60.472L316.932 61.506L315.15 59.042L311.102 59.526V69.822L315.15 70.306L316.932 67.842L317.9 68.876L316.448 71.208L311.366 71.626L309.364 70.042V59.46ZM320.364 63.574L322.036 61.924H326.964L328.636 63.574V69.888L326.964 71.56H322.036L320.364 69.888V63.574ZM326.898 69.822V63.64L322.432 63.222L321.684 65.224L322.102 69.822H326.898ZM338.25 61.924V57.788H339.636V71.56H333.036L331.364 69.888V63.574L333.036 61.924H338.25ZM338.25 70.24V63.288H333.366L332.684 65.224L333.102 69.822L338.25 70.24ZM344.432 63.288V61.924H347.182V70.174H348.568V71.56H344.432V70.174H345.818V63.288H344.432ZM345.818 60.56V57.788H347.182V60.56H345.818ZM353.364 71.56V61.924H359.964L361.636 63.574V71.56H360.316L359.898 63.64L354.75 63.222V71.56H353.364ZM364.364 63.574L366.036 61.924H372.636V73.342L370.964 74.992H365.068V73.672L370.766 73.276L371.382 71.56H366.036L364.364 69.888V63.574ZM371.25 70.24V63.288H366.366L365.684 65.224L366.102 69.822L371.25 70.24Z" fill="black"/>
</svg>
