<svg width="235" height="54" viewBox="0 0 235 54" fill="none" xmlns="http://www.w3.org/2000/svg">
<path d="M67 2H5C3.34315 2 2 3.43717 2 5.21V41.59C2 43.3628 3.34315 44.8 5 44.8H67C68.6569 44.8 70 43.3628 70 41.59V5.21C70 3.43717 68.6569 2 67 2Z" stroke="#B9FF83" stroke-width="4"/>
<path d="M46 46.9399H24V53.3599H46V46.9399Z" fill="#B9FF83"/>
<path d="M2.616 13.026H7.152L10.632 24.762L14.736 13.026H19.008L22.968 24.762L26.544 13.026H31.08L25.44 30.45H21L16.824 17.754L12.456 30.45H8.16L2.616 13.026ZM32.6471 13.026H48.1271V16.602H37.0151V19.506H46.9031V23.082H37.0151V26.874H48.1271V30.45H32.6471V13.026ZM51.3737 30.45V13.026H62.6297C66.5497 13.026 68.5097 14.474 68.5097 17.37C68.5097 18.218 68.3097 18.962 67.9097 19.602C67.5097 20.258 66.9177 20.786 66.1337 21.186C67.1417 21.506 67.9017 22.026 68.4137 22.746C68.9097 23.482 69.1577 24.394 69.1577 25.482C69.1417 27.002 68.6537 28.202 67.6937 29.082C66.7177 29.978 65.3257 30.434 63.5177 30.45H51.3737ZM55.7417 23.058V26.874H61.5497C62.5737 26.89 63.3417 26.786 63.8537 26.562C64.3497 26.338 64.5977 25.842 64.5977 25.074C64.5977 24.338 64.3497 23.818 63.8537 23.514C63.3577 23.194 62.5897 23.042 61.5497 23.058H55.7417ZM55.7417 16.602V20.01H60.9017C61.9257 20.026 62.6937 19.914 63.2057 19.674C63.7017 19.418 63.9497 18.93 63.9497 18.2099C63.9497 17.554 63.7017 17.114 63.2057 16.89C62.7097 16.682 61.9417 16.586 60.9017 16.602H55.7417ZM71.8279 22.314H80.2279V25.002H71.8279V22.314ZM83.8346 13.026H98.7146V16.602H88.2026V19.89H97.8026V23.466H88.2026V30.45H83.8346V13.026ZM104.969 17.466V19.17C105.561 18.45 106.185 17.906 106.841 17.538C107.481 17.186 108.169 17.01 108.905 17.01C109.065 17.01 109.249 17.018 109.457 17.034C109.681 17.05 109.873 17.074 110.033 17.1059V20.514C109.921 20.498 109.737 20.49 109.481 20.49C109.241 20.474 109.001 20.466 108.761 20.466C107.577 20.482 106.649 20.85 105.977 21.57C105.321 22.306 104.985 23.33 104.969 24.642V30.45H100.937V17.466H104.969ZM126.569 26.226C126.025 27.714 125.105 28.866 123.809 29.682C122.513 30.482 120.897 30.89 118.961 30.906C116.529 30.89 114.625 30.266 113.249 29.034C111.873 27.802 111.169 26.106 111.137 23.946C111.153 21.802 111.849 20.114 113.225 18.882C114.585 17.65 116.497 17.026 118.961 17.01C121.489 17.026 123.417 17.666 124.745 18.93C126.089 20.21 126.769 22.05 126.785 24.45V25.002H115.673C115.689 25.962 116.001 26.722 116.609 27.282C117.201 27.826 117.985 28.106 118.961 28.122C119.729 28.122 120.393 27.954 120.953 27.618C121.497 27.298 121.889 26.834 122.129 26.226H126.569ZM115.793 22.314H122.321C122.241 21.498 121.913 20.858 121.337 20.394C120.761 19.946 120.001 19.714 119.057 19.698C118.113 19.714 117.353 19.946 116.777 20.394C116.201 20.858 115.873 21.498 115.793 22.314ZM143.937 26.226C143.393 27.714 142.473 28.866 141.177 29.682C139.881 30.482 138.265 30.89 136.329 30.906C133.897 30.89 131.993 30.266 130.617 29.034C129.241 27.802 128.537 26.106 128.505 23.946C128.521 21.802 129.217 20.114 130.593 18.882C131.953 17.65 133.865 17.026 136.329 17.01C138.857 17.026 140.785 17.666 142.113 18.93C143.457 20.21 144.137 22.05 144.153 24.45V25.002H133.041C133.057 25.962 133.369 26.722 133.977 27.282C134.569 27.826 135.353 28.106 136.329 28.122C137.097 28.122 137.761 27.954 138.321 27.618C138.865 27.298 139.257 26.834 139.497 26.226H143.937ZM133.161 22.314H139.689C139.609 21.498 139.281 20.858 138.705 20.394C138.129 19.946 137.369 19.714 136.425 19.698C135.481 19.714 134.721 19.946 134.145 20.394C133.569 20.858 133.241 21.498 133.161 22.314ZM150.912 13.026V30.45H146.88V13.026H150.912ZM159.221 21.762H155.045C155.045 20.226 155.669 19.05 156.917 18.234C158.149 17.418 159.981 17.01 162.413 17.01C164.221 16.962 165.773 17.266 167.069 17.922C168.365 18.578 169.045 19.906 169.109 21.906V28.362C169.109 28.81 169.149 29.178 169.229 29.466C169.309 29.77 169.469 30.002 169.709 30.162V30.45H165.269L165.077 29.034C164.357 29.69 163.549 30.17 162.653 30.474C161.757 30.762 160.757 30.906 159.653 30.906C157.813 30.89 156.389 30.498 155.381 29.73C154.389 28.946 153.885 27.906 153.869 26.61C153.869 25.282 154.381 24.33 155.405 23.754C156.429 23.162 157.973 22.794 160.037 22.65C161.717 22.554 162.989 22.434 163.853 22.29C164.733 22.146 165.173 21.73 165.173 21.042C165.173 20.066 164.173 19.578 162.173 19.578C161.197 19.578 160.461 19.746 159.965 20.082C159.469 20.434 159.221 20.994 159.221 21.762ZM165.173 24.186C164.757 24.41 164.269 24.562 163.709 24.642C163.165 24.722 162.557 24.794 161.885 24.858C160.749 24.954 159.885 25.106 159.293 25.314C158.701 25.506 158.405 25.906 158.405 26.514C158.405 27.01 158.605 27.41 159.005 27.714C159.389 28.018 159.917 28.17 160.589 28.17C161.981 28.154 163.093 27.826 163.925 27.186C164.741 26.546 165.157 25.698 165.173 24.642V24.186ZM176.453 17.466V19.29C177.157 18.522 177.933 17.946 178.781 17.562C179.613 17.194 180.525 17.01 181.517 17.01C183.645 17.026 185.117 17.57 185.933 18.642C186.733 19.698 187.117 21.202 187.085 23.154V30.45H183.053V23.898C183.085 22.602 182.901 21.642 182.501 21.018C182.101 20.41 181.341 20.106 180.221 20.106C179.053 20.106 178.141 20.426 177.485 21.066C176.813 21.69 176.469 22.586 176.453 23.754V30.45H172.421V17.466H176.453ZM205.327 22.458H200.887C200.775 21.706 200.439 21.122 199.879 20.706C199.303 20.306 198.535 20.106 197.575 20.106C196.487 20.122 195.615 20.474 194.959 21.162C194.303 21.85 193.967 22.786 193.951 23.97C193.967 25.154 194.295 26.082 194.935 26.754C195.591 27.442 196.471 27.794 197.575 27.81C198.519 27.794 199.295 27.546 199.903 27.066C200.495 26.602 200.831 25.97 200.911 25.17H205.471C205.311 26.882 204.527 28.258 203.119 29.298C201.711 30.338 199.847 30.874 197.527 30.906C195.111 30.874 193.191 30.242 191.767 29.01C190.343 27.778 189.615 26.09 189.583 23.946C189.599 21.802 190.327 20.114 191.767 18.882C193.191 17.65 195.207 17.026 197.815 17.01C200.055 17.026 201.815 17.498 203.095 18.426C204.359 19.37 205.103 20.714 205.327 22.458ZM222.546 26.226C222.002 27.714 221.082 28.866 219.786 29.682C218.49 30.482 216.874 30.89 214.938 30.906C212.506 30.89 210.602 30.266 209.226 29.034C207.85 27.802 207.146 26.106 207.114 23.946C207.13 21.802 207.826 20.114 209.202 18.882C210.562 17.65 212.474 17.026 214.938 17.01C217.466 17.026 219.394 17.666 220.722 18.93C222.066 20.21 222.746 22.05 222.762 24.45V25.002H211.65C211.666 25.962 211.978 26.722 212.586 27.282C213.178 27.826 213.962 28.106 214.938 28.122C215.706 28.122 216.37 27.954 216.93 27.618C217.474 27.298 217.866 26.834 218.106 26.226H222.546ZM211.77 22.314H218.298C218.218 21.498 217.89 20.858 217.314 20.394C216.738 19.946 215.978 19.714 215.034 19.698C214.09 19.714 213.33 19.946 212.754 20.394C212.178 20.858 211.85 21.498 211.77 22.314ZM229.281 17.466V19.17C229.873 18.45 230.497 17.906 231.153 17.538C231.793 17.186 232.481 17.01 233.217 17.01C233.377 17.01 233.561 17.018 233.769 17.034C233.993 17.05 234.185 17.074 234.345 17.1059V20.514C234.233 20.498 234.049 20.49 233.793 20.49C233.553 20.474 233.313 20.466 233.073 20.466C231.889 20.482 230.961 20.85 230.289 21.57C229.633 22.306 229.297 23.33 229.281 24.642V30.45H225.249V17.466H229.281Z" fill="#033932"/>
<path d="M79.84 41.344H82.704L84.672 47.344L86.464 41.344H89.12L90.912 47.344L92.864 41.344H95.744L92.256 50H89.6L87.792 44.208L85.968 50H83.328L79.84 41.344ZM106.442 47.184C106.079 48.176 105.466 48.944 104.602 49.488C103.738 50.0213 102.661 50.2933 101.37 50.304C99.7488 50.2933 98.4795 49.8773 97.5621 49.056C96.6448 48.2347 96.1755 47.104 96.1541 45.664C96.1648 44.2347 96.6288 43.1093 97.5461 42.288C98.4528 41.4667 99.7275 41.0507 101.37 41.04C103.055 41.0507 104.341 41.4773 105.226 42.32C106.122 43.1733 106.575 44.4 106.586 46V46.368H99.1781C99.1888 47.008 99.3968 47.5147 99.8021 47.888C100.197 48.2507 100.719 48.4373 101.37 48.448C101.882 48.448 102.325 48.336 102.698 48.112C103.061 47.8987 103.322 47.5893 103.482 47.184H106.442ZM99.2581 44.576H103.61C103.557 44.032 103.338 43.6053 102.954 43.296C102.57 42.9973 102.063 42.8427 101.434 42.832C100.805 42.8427 100.298 42.9973 99.9141 43.296C99.5301 43.6053 99.3115 44.032 99.2581 44.576ZM113.476 43.28C112.687 43.2907 112.068 43.52 111.62 43.968C111.172 44.4053 110.943 45.0027 110.932 45.76C110.943 46.5173 111.172 47.12 111.62 47.568C112.068 48.0053 112.687 48.2293 113.476 48.24C114.255 48.2293 114.874 48.0107 115.332 47.584C115.78 47.1467 116.01 46.544 116.02 45.776C116.01 45.008 115.78 44.4 115.332 43.952C114.884 43.5147 114.266 43.2907 113.476 43.28ZM110.932 38.384V42.336C111.263 41.9733 111.679 41.696 112.18 41.504C112.682 41.312 113.274 41.216 113.956 41.216C115.45 41.2373 116.65 41.6587 117.556 42.48C118.452 43.2907 118.911 44.384 118.932 45.76C118.911 47.1147 118.452 48.208 117.556 49.04C116.671 49.8613 115.487 50.2827 114.004 50.304C113.343 50.304 112.762 50.2133 112.26 50.032C111.748 49.8507 111.306 49.5733 110.932 49.2V50H108.244V38.384H110.932ZM129.249 41.344V50H126.561V41.344H129.249ZM126.561 38.4H129.249V40.464H126.561V38.4ZM132.276 39.04H134.964V41.344H136.98V43.408H134.964V47.04C134.943 47.5307 134.985 47.856 135.092 48.016C135.188 48.176 135.449 48.2507 135.876 48.24H136.98V50.304H135.156C134.175 50.3147 133.449 50.16 132.98 49.84C132.511 49.52 132.276 48.976 132.276 48.208V43.408H131.012V41.344H132.276V39.04ZM150.533 38.384H153.221V42.208C153.519 41.8667 153.887 41.5893 154.325 41.376C154.773 41.1627 155.295 41.0507 155.893 41.04C157.173 41.0613 158.181 41.504 158.917 42.368C159.653 43.2213 160.026 44.3467 160.037 45.744C160.026 47.1413 159.647 48.2453 158.901 49.056C158.154 49.8667 157.135 50.2827 155.845 50.304C154.735 50.304 153.861 49.936 153.221 49.2V53.36H150.533V49.216C150.213 49.5787 149.834 49.8507 149.397 50.032C148.959 50.2133 148.463 50.304 147.909 50.304C146.618 50.2827 145.599 49.8667 144.853 49.056C144.106 48.2453 143.727 47.1413 143.717 45.744C143.738 44.3467 144.117 43.2213 144.853 42.368C145.599 41.504 146.613 41.0613 147.893 41.04C148.49 41.0507 149.007 41.1627 149.445 41.376C149.871 41.6 150.234 41.8827 150.533 42.224V38.384ZM154.997 43.104C154.357 43.1147 153.882 43.3653 153.573 43.856C153.263 44.3467 153.109 44.976 153.109 45.744C153.109 46.5013 153.263 47.104 153.573 47.552C153.893 48 154.378 48.2293 155.029 48.24C155.701 48.2293 156.218 48.0053 156.581 47.568C156.943 47.1307 157.125 46.5227 157.125 45.744C157.125 44.9653 156.949 44.336 156.597 43.856C156.245 43.3653 155.711 43.1147 154.997 43.104ZM148.741 43.104C148.026 43.1147 147.493 43.3653 147.141 43.856C146.799 44.336 146.629 44.9653 146.629 45.744C146.629 46.5227 146.81 47.1307 147.173 47.568C147.535 48.0053 148.053 48.2293 148.725 48.24C149.375 48.2293 149.861 48 150.181 47.552C150.49 47.104 150.645 46.5013 150.645 45.744C150.645 44.976 150.49 44.3467 150.181 43.856C149.861 43.3653 149.381 43.1147 148.741 43.104ZM164.385 41.344V42.192C164.727 41.84 165.153 41.5573 165.665 41.344C166.167 41.1413 166.764 41.04 167.457 41.04C168.94 41.0613 170.124 41.4933 171.009 42.336C171.905 43.1893 172.364 44.2987 172.385 45.664C172.364 47.0507 171.905 48.1653 171.009 49.008C170.103 49.8507 168.903 50.2827 167.409 50.304C166.769 50.304 166.199 50.1973 165.697 49.984C165.196 49.7813 164.759 49.488 164.385 49.104V53.056H161.697V41.344H164.385ZM166.945 43.104C166.156 43.1147 165.537 43.3547 165.089 43.824C164.631 44.2933 164.396 44.912 164.385 45.68C164.396 46.4373 164.625 47.0507 165.073 47.52C165.521 47.9893 166.14 48.2293 166.929 48.24C167.719 48.2293 168.337 47.9893 168.785 47.52C169.233 47.0507 169.463 46.432 169.473 45.664C169.463 44.896 169.233 44.2773 168.785 43.808C168.337 43.3493 167.724 43.1147 166.945 43.104ZM176.633 41.344V47.072L180.713 41.344H183.833V50H181.257V44.144L177.177 50H174.057V41.344H176.633ZM186.938 41.344H196.234V50H193.546V43.408H189.626V45.84C189.615 47.4507 189.317 48.6027 188.73 49.296C188.143 49.9893 187.359 50.3253 186.378 50.304H184.922V47.92H185.69C186.138 47.9307 186.458 47.7867 186.65 47.488C186.842 47.1787 186.938 46.6293 186.938 45.84V41.344ZM201.616 44.208H198.832C198.832 43.184 199.248 42.4 200.08 41.856C200.901 41.312 202.123 41.04 203.744 41.04C204.949 41.008 205.984 41.2107 206.848 41.648C207.712 42.0853 208.165 42.9707 208.208 44.304V48.608C208.208 48.9067 208.235 49.152 208.288 49.344C208.341 49.5467 208.448 49.7013 208.608 49.808V50H205.648L205.52 49.056C205.04 49.4933 204.501 49.8133 203.904 50.016C203.307 50.208 202.64 50.304 201.904 50.304C200.677 50.2933 199.728 50.032 199.056 49.52C198.395 48.9973 198.059 48.304 198.048 47.44C198.048 46.5547 198.389 45.92 199.072 45.536C199.755 45.1413 200.784 44.896 202.16 44.8C203.28 44.736 204.128 44.656 204.704 44.56C205.291 44.464 205.584 44.1867 205.584 43.728C205.584 43.0773 204.917 42.752 203.584 42.752C202.933 42.752 202.443 42.864 202.112 43.088C201.781 43.3227 201.616 43.696 201.616 44.208ZM205.584 45.824C205.307 45.9733 204.981 46.0747 204.608 46.128C204.245 46.1813 203.84 46.2293 203.392 46.272C202.635 46.336 202.059 46.4373 201.664 46.576C201.269 46.704 201.072 46.9707 201.072 47.376C201.072 47.7067 201.205 47.9733 201.472 48.176C201.728 48.3787 202.08 48.48 202.528 48.48C203.456 48.4693 204.197 48.2507 204.752 47.824C205.296 47.3973 205.573 46.832 205.584 46.128V45.824ZM213.104 41.344V44.496H217.504V41.344H220.192V50H217.504V46.56H213.104V50H210.416V41.344H213.104ZM232.353 44.672H229.393C229.319 44.1707 229.095 43.7813 228.721 43.504C228.337 43.2373 227.825 43.104 227.185 43.104C226.46 43.1147 225.879 43.3493 225.441 43.808C225.004 44.2667 224.78 44.8907 224.769 45.68C224.78 46.4693 224.999 47.088 225.425 47.536C225.863 47.9947 226.449 48.2293 227.185 48.24C227.815 48.2293 228.332 48.064 228.737 47.744C229.132 47.4347 229.356 47.0133 229.409 46.48H232.449C232.343 47.6213 231.82 48.5387 230.881 49.232C229.943 49.9253 228.7 50.2827 227.153 50.304C225.543 50.2827 224.263 49.8613 223.313 49.04C222.364 48.2187 221.879 47.0933 221.857 45.664C221.868 44.2347 222.353 43.1093 223.313 42.288C224.263 41.4667 225.607 41.0507 227.345 41.04C228.839 41.0507 230.012 41.3653 230.865 41.984C231.708 42.6133 232.204 43.5093 232.353 44.672Z" fill="#B7B7B7"/>
</svg>
